<svg id="Capa_1" enable-background="new 0 0 512 512" height="512" viewBox="0 0 512 512" width="512" xmlns="http://www.w3.org/2000/svg">
	<style type="text/css">
	#Capa_1{
    	fill:whitesmoke;
	}
	</style>
<path d="m485 128.33h-39.887v-20.137c0-14.888-12.112-27-27-27h-77.173c-14.888 0-27 12.112-27 27v89.113h-115.88v-89.113c0-14.888-12.112-27-27-27h-77.173c-14.888 0-27 12.112-27 27v20.137h-39.887c-14.888 0-27 12.112-27 27v201.34c0 14.888 12.112 27 27 27h39.887v20.138c0 14.888 12.112 27 27 27h77.173c14.888 0 27-12.112 27-27v-89.113h115.88v89.113c0 14.888 12.112 27 27 27h77.173c14.888 0 27-12.112 27-27v-20.138h39.887c14.888 0 27-12.112 27-27v-201.34c0-14.888-12.112-27-27-27zm-455 225.34v-195.34h36.887v195.34zm138.06 47.137h-71.173v-289.614h71.173zm30-116.113v-57.389h115.88v57.389zm217.053 116.113h-71.173v-289.614h71.173zm66.887-47.137h-36.887v-195.34h36.887z"/>
</svg>